<svg xmlns="http://www.w3.org/2000/svg" viewBox="0 0 1261.004 1026.994">
  <defs>
    <style>
      .cls-1 {
        fill: #311f56;
      }
    </style>
  </defs>
  <path id="line3" class="cls-1" d="M1922.937,1303.444c-250.188,4.615-247.337-104.041-495.331-87.267-468.345,31.68-572.068-36.635-605.9-62.285-65.667-49.785-101.529-115.737-112.992-137.31-50.486-94.971-48.062-179.084-45.852-256.218A668,668,0,0,1,711.989,526.8c25.873-63.5,43.69-107.215,91.7-151.465C877.22,307.567,967.45,288.442,1000.2,281.9c24.138-4.827,82.959-14.623,270.2,16.987,82.665,13.958,190.433,32.148,332.427,76.441,139.014,43.373,246.3-16.887,320.111-54.216Z" transform="translate(-661.933 -276.593)"/>
</svg>
