<svg xmlns="http://www.w3.org/2000/svg" xmlns:xlink="http://www.w3.org/1999/xlink" width="1080" zoomAndPan="magnify" viewBox="0 0 810 809.999993" height="1080" preserveAspectRatio="xMidYMid meet" version="1.0"><defs><g/><clipPath id="id1"><path d="M 0 0 L 809.644531 0 L 809.644531 810 L 0 810 Z M 0 0 " clip-rule="nonzero"/></clipPath></defs><g clip-path="url(#id1)"><path fill="#ffde59" d="M -34.105469 0 L 809.644531 0 L 809.644531 845.25 L -34.105469 845.25 L -34.105469 0 " fill-opacity="1" fill-rule="nonzero"/></g><g fill="#ababab" fill-opacity="0.4"><g transform="translate(-126.052074, 830.105318)"><g><path d="M 265.480469 -350.433594 C 341.9375 -341.9375 384.414062 -302.648438 384.414062 -238.933594 C 384.414062 -187.960938 341.9375 -144.421875 287.78125 -144.421875 C 241.054688 -144.421875 203.890625 -156.101562 167.785156 -201.765625 L 31.859375 -101.945312 C 107.253906 -19.113281 197.515625 13.804688 287.78125 13.804688 C 426.890625 13.804688 555.386719 -96.636719 555.386719 -250.613281 C 555.386719 -403.53125 443.882812 -494.855469 309.019531 -503.351562 C 225.128906 -508.660156 198.578125 -541.582031 198.578125 -577.683594 C 198.578125 -621.222656 228.3125 -647.773438 271.851562 -647.773438 C 299.460938 -647.773438 334.503906 -630.78125 355.742188 -608.480469 L 485.296875 -702.992188 C 424.769531 -775.203125 350.433594 -804.9375 271.851562 -804.9375 C 162.472656 -804.9375 39.292969 -710.425781 39.292969 -576.625 C 39.292969 -452.378906 128.492188 -366.363281 265.480469 -350.433594 Z M 265.480469 -350.433594 "/></g></g></g><g fill="#ffffff" fill-opacity="1"><g transform="translate(-172.982872, 783.174568)"><g><path d="M 265.480469 -350.433594 C 341.9375 -341.9375 384.414062 -302.648438 384.414062 -238.933594 C 384.414062 -187.960938 341.9375 -144.421875 287.78125 -144.421875 C 241.054688 -144.421875 203.890625 -156.101562 167.785156 -201.765625 L 31.859375 -101.945312 C 107.253906 -19.113281 197.515625 13.804688 287.78125 13.804688 C 426.890625 13.804688 555.386719 -96.636719 555.386719 -250.613281 C 555.386719 -403.53125 443.882812 -494.855469 309.019531 -503.351562 C 225.128906 -508.660156 198.578125 -541.582031 198.578125 -577.683594 C 198.578125 -621.222656 228.3125 -647.773438 271.851562 -647.773438 C 299.460938 -647.773438 334.503906 -630.78125 355.742188 -608.480469 L 485.296875 -702.992188 C 424.769531 -775.203125 350.433594 -804.9375 271.851562 -804.9375 C 162.472656 -804.9375 39.292969 -710.425781 39.292969 -576.625 C 39.292969 -452.378906 128.492188 -366.363281 265.480469 -350.433594 Z M 265.480469 -350.433594 "/></g></g></g></svg>